<svg class="logo-svg" viewBox="0 0 220 240" width="150" preserveAspectRatio="xMidYMid meet" aria-label="Global Data Care" xmlns="http://www.w3.org/2000/svg" style="display:block">
          <defs>
            <style>
              .gdc-stroke{fill:none;stroke:#0B2A3A;stroke-width:6;stroke-linecap:round;stroke-linejoin:round}
              .gdc-heart{fill:#00A676;stroke:#ffffff;stroke-width:2.2}
              .gdc-ecg{fill:none;stroke:#ffffff;stroke-width:5;stroke-linecap:round;stroke-linejoin:round}
            
    .img-emerg{width:100%;height:auto;image-rendering:auto;}
    @media(min-width:960px){.img-emerg{max-width:720px}}
  </style>
          </defs>
          <g transform="translate(10,0)">
            <circle class="gdc-stroke" cx="100" cy="90" r="80"/>
            <path class="gdc-stroke" d="M20 90H180"/>
            <path class="gdc-stroke" d="M28 58 C70 40,130 40,172 58"/>
            <path class="gdc-stroke" d="M28 122 C70 140,130 140,172 122"/>
            <path class="gdc-stroke" d="M100 10V170"/>
            <path class="gdc-stroke" d="M76 14 C60 42,60 138,76 166"/>
            <path class="gdc-stroke" d="M124 14 C140 42,140 138,124 166"/>
            <path class="gdc-heart" d="M100 140c-26-22-58-34-58-60 0-16 12-30 30-30 11 0 20 5 28 14 8-9 17-14 28-14 18 0 30 14 30 30 0 26-32 38-58 60z"/>
            <path class="gdc-ecg" d="M62 102h20l10-24 14 40 12-16h24"/>
          </g>
          <g fill="#0B2A3A" text-anchor="middle">
            <text x="110" y="200" font-family="Inter, system-ui, sans-serif" font-weight="900" font-size="36" letter-spacing="1.6">GLOBAL</text>
            <text x="110" y="230" font-family="Inter, system-ui, sans-serif" font-weight="800" font-size="30" letter-spacing="1.4">DATA CARE</text>
          </g>
        </svg>